<svg preserveAspectRatio="none" overflow="visible" style="display: block;" width="199.991" height="43.18" viewBox="0 0 199.991 43.18" fill="none" xmlns="http://www.w3.org/2000/svg">
<g id="_2421500954528">
<path id="Vector" fill-rule="evenodd" clip-rule="evenodd" d="M17.0026 0C22.5883 7.19667 33.3129 7.19667 33.3129 7.19667C35.1003 21.3651 32.1957 32.385 20.5775 40.9311C19.4603 41.6058 18.1197 42.5053 17.0026 43.18C15.6621 42.5053 14.3215 41.6058 13.2044 40.9311C1.80957 32.385 -1.31842 21.3651 0.469006 7.19667C0.469006 7.19667 11.1935 7.19667 17.0026 0ZM16.3323 34.4091L16.5558 29.4614V29.2365C16.5558 29.0116 16.3323 28.7867 15.8855 28.7867L10.0764 29.6862L10.9701 27.6622C10.9701 27.4373 10.9701 27.4373 10.9701 27.4373C10.9701 27.2124 10.7467 27.2125 10.7467 26.9875L4.4907 21.815L5.83127 21.1403C6.05469 21.1403 6.05469 20.9153 6.05469 20.9153C6.05469 20.6904 6.05469 20.6904 6.05469 20.6904L4.71413 16.8672L8.51236 17.5419C8.73581 17.5419 8.95927 17.5419 8.95927 17.317L9.62956 15.7428L12.5341 18.6664C12.5341 18.8913 12.7575 18.8912 12.7575 18.8912C12.9809 18.8912 13.2044 18.6664 13.2044 18.4415L11.8638 11.2448L14.0981 12.5942H14.3215C14.5449 12.5942 14.5449 12.3692 14.7684 12.3692L17.0026 7.87137L19.2369 12.3692L19.4603 12.5942C19.6838 12.5942 19.6838 12.5942 19.6838 12.5942L21.9181 11.2448L20.5775 18.4415C20.5775 18.6664 20.8009 18.8912 21.0243 18.8912C21.2478 18.8912 21.2478 18.8913 21.2478 18.6664L24.1523 15.7428L24.8226 17.317C25.0461 17.5419 25.0461 17.5419 25.2694 17.5419C25.2694 17.5419 25.2694 17.5419 25.4929 17.5419L29.0677 16.8672L27.7271 20.6904C27.7271 20.6904 27.7271 20.6904 27.7271 20.9153L27.9506 21.1403L29.5146 21.815L23.0352 26.9875C23.0352 27.2125 23.0352 27.2124 23.0352 27.4373C23.0352 27.4373 23.0352 27.4373 23.0352 27.6622L23.7055 29.6862L17.8964 28.7867C17.4495 28.7867 17.2261 29.0116 17.2261 29.2365V29.4614L17.4495 34.4091L17.0026 34.8589L16.3323 34.4091Z" fill="#D01D20"/>
<path id="Vector_2" d="M54.3156 31.0356L50.5174 24.5137H47.8362V31.0356H44.2614V12.5942H51.4111C53.1985 12.5942 54.5391 13.2689 55.8797 14.3934C56.9968 15.5178 57.6671 17.0921 57.6671 18.6664C57.6671 19.7909 57.2201 20.9153 56.5499 21.815C55.8797 22.9394 55.2094 23.6141 54.0922 24.0639L58.1139 31.0356H54.3156ZM47.8362 15.9676V21.3651H51.4111C52.0813 21.3651 52.7516 21.1403 53.1985 20.6904C53.6453 20.0158 54.0922 19.3411 54.0922 18.6664C54.0922 17.9917 53.6453 17.317 53.1985 16.8672C52.7516 16.1925 52.0813 15.9676 51.4111 15.9676H47.8362ZM68.8384 31.4854C65.9339 31.4854 63.6996 30.5859 61.9121 28.5618C60.1247 26.7626 59.231 24.5137 59.231 21.815C59.231 19.1162 60.1247 16.8672 61.9121 14.8431C63.6996 13.044 65.9339 12.1444 68.8384 12.1444C70.4024 12.1444 71.9664 12.5942 73.3069 13.2689C74.871 14.1684 75.7646 15.2929 76.6584 16.6423L73.5304 18.4415C73.0836 17.5419 72.4133 16.8672 71.5195 16.4175C70.8492 15.9676 69.7321 15.7428 68.8384 15.7428C67.051 15.7428 65.487 16.1925 64.3698 17.317C63.2527 18.4415 62.8059 20.0158 62.8059 21.815C62.8059 23.6141 63.2527 24.9634 64.3698 26.0879C65.487 27.2125 67.051 27.8871 68.8384 27.8871C69.7321 27.8871 70.8492 27.6622 71.5195 27.2125C72.4133 26.7626 73.0836 26.0879 73.5304 25.1884L76.6584 26.9875C75.7646 28.3369 74.871 29.4614 73.3069 30.1361C71.9664 31.0356 70.4024 31.4854 68.8384 31.4854ZM78.8927 12.5942H82.4675V31.0356H78.8927V12.5942ZM94.5326 31.4854C91.8513 31.4854 89.6168 30.5859 87.8298 28.5618C86.042 26.7626 85.1485 24.5137 85.1485 21.815C85.1485 19.1162 86.042 16.8672 87.8298 14.8431C89.6168 13.044 91.8513 12.1444 94.5326 12.1444C96.3196 12.1444 97.8841 12.5942 99.2243 13.2689C100.565 14.1684 101.682 15.2929 102.576 16.6423L99.4477 18.4415C99.0009 17.5419 98.3308 16.8672 97.4373 16.4175C96.5438 15.9676 95.6495 15.7428 94.5326 15.7428C92.7448 15.7428 91.4046 16.1925 90.2877 17.317C89.17 18.4415 88.7233 20.0158 88.7233 21.815C88.7233 23.6141 89.17 24.9634 90.2877 26.0879C91.4046 27.2125 92.7448 27.8871 94.5326 27.8871C95.6495 27.8871 96.5438 27.6622 97.4373 27.2125C98.3308 26.7626 99.0009 26.0879 99.4477 25.1884L102.576 26.9875C101.682 28.3369 100.565 29.4614 99.2243 30.1361C97.8841 31.0356 96.3196 31.4854 94.5326 31.4854Z" fill="#000103"/>
<path id="Vector_3" d="M122.908 12.5942V31.0356H119.333V19.1162L114.194 27.6622H113.747L108.608 19.1162V31.0356H104.81V12.5942H108.608L113.971 21.3651L119.11 12.5942H122.908ZM138.325 31.0356L137.207 27.6622H129.611L128.494 31.0356H124.696L130.951 12.5942H135.643L142.123 31.0356H138.325ZM130.727 24.2887H136.09L133.409 16.8672L130.727 24.2887ZM149.719 31.4854C147.931 31.4854 146.368 31.0356 145.028 30.1361C143.91 29.4614 143.016 28.3369 142.346 26.7626L145.474 24.9634C146.144 26.9875 147.708 27.8871 149.719 27.8871C150.836 27.8871 151.506 27.6622 151.954 27.2125C152.4 26.9875 152.624 26.5378 152.624 25.8631C152.624 25.1884 152.4 24.7386 151.73 24.2887C151.283 24.0639 150.166 23.6141 148.826 23.1643C147.931 22.9394 147.261 22.7145 146.591 22.4896C146.144 22.2647 145.474 21.815 145.028 21.3651C144.357 21.1403 143.91 20.4656 143.686 19.7909C143.24 19.3411 143.24 18.4415 143.24 17.7668C143.24 15.9676 143.686 14.6183 145.028 13.7187C146.144 12.5942 147.485 12.1444 149.272 12.1444C150.613 12.1444 151.954 12.5942 153.071 13.2689C154.187 13.9436 155.081 15.0681 155.752 16.4175L152.847 18.2166C151.954 16.4175 150.836 15.7428 149.272 15.7428C148.379 15.7428 147.931 15.9676 147.485 16.1925C147.038 16.6423 146.814 17.0921 146.814 17.5419C146.814 18.2166 147.038 18.6664 147.485 18.8912C147.931 19.3411 148.826 19.7909 150.389 20.2406C150.836 20.2406 151.283 20.4656 151.506 20.4656C151.954 20.6904 152.177 20.9153 152.847 20.9153C153.294 21.1403 153.741 21.3651 153.964 21.59C154.187 21.815 154.411 22.0398 154.858 22.2647C155.081 22.4896 155.529 22.9394 155.529 23.1643C155.752 23.6141 155.975 23.839 156.199 24.2887C156.199 24.7386 156.199 25.4133 156.199 25.8631C156.199 27.4373 155.752 29.0116 154.411 29.9112C153.294 30.8108 151.73 31.4854 149.719 31.4854ZM170.051 12.5942V15.9676H165.135V31.0356H161.56V15.9676H156.645V12.5942H170.051ZM175.861 27.6622H183.457V31.0356H172.062V12.5942H183.457V15.9676H175.861V20.0158H182.787V23.3892H175.861V27.6622ZM196.192 31.0356L192.393 24.5137H189.713V31.0356H186.138V12.5942H193.511C195.075 12.5942 196.639 13.2689 197.756 14.3934C198.873 15.5178 199.543 17.0921 199.543 18.6664C199.543 19.7909 199.096 20.9153 198.65 21.815C197.979 22.9394 197.086 23.6141 195.968 24.0639L199.991 31.0356H196.192ZM189.713 15.9676V21.3651H193.511C194.181 21.3651 194.628 21.1403 195.075 20.6904C195.745 20.0158 195.968 19.3411 195.968 18.6664C195.968 17.9917 195.745 17.317 195.075 16.8672C194.628 16.1925 194.181 15.9676 193.511 15.9676H189.713Z" fill="#D01D20"/>
</g>
</svg>
